<svg width="32" height="32" viewBox="0 0 32 32" fill="none" xmlns="http://www.w3.org/2000/svg">
<path d="M2 13.5688C2 13.0188 2.45 12.5688 3 12.5688H12V6.7C12 6.25625 12.5375 6.03125 12.85 6.34375L21.7 15.2875C22.0938 15.6813 22.0938 16.3125 21.7 16.7062L12.85 25.65C12.5375 25.9625 12 25.7438 12 25.2938V19.425H3C2.45 19.425 2 18.975 2 18.425V13.5688V13.5688ZM0 13.5688V18.425C0 20.0812 1.34375 21.425 3 21.425H10V25.2938C10 27.5125 12.6875 28.6375 14.2625 27.0625L23.1187 18.125C24.2937 16.95 24.2937 15.05 23.1187 13.875L14.2625 4.93125C12.6937 3.3625 10 4.475 10 6.7V10.5688H3C1.34375 10.5688 0 11.9188 0 13.5688V13.5688ZM32 25V7C32 5.34375 30.6562 4 29 4H20.75C20.3375 4 20 4.3375 20 4.75V5.25C20 5.6625 20.3375 6 20.75 6H29C29.55 6 30 6.45 30 7V25C30 25.55 29.55 26 29 26H20.75C20.3375 26 20 26.3375 20 26.75V27.25C20 27.6625 20.3375 28 20.75 28H29C30.6562 28 32 26.6562 32 25Z" fill="white"/>
</svg>
